<?xml version="1.0" encoding="UTF-8"?>
<svg version="1.1" viewBox="0 0 256 256" xmlns="http://www.w3.org/2000/svg" xmlns:xlink="http://www.w3.org/1999/xlink">
 <defs>
  <linearGradient id="linearGradient17" x1="57.02" x2="121.68" y1="166.24" y2="132.47" gradientTransform="translate(-2.037 .56784)" gradientUnits="userSpaceOnUse">
   <stop stop-color="#f100ff" offset="0"/>
   <stop stop-opacity="0" offset="1"/>
  </linearGradient>
  <linearGradient id="linearGradient18" x1="57.02" x2="121.68" y1="166.24" y2="132.47" gradientTransform="matrix(-1 0 0 1 254.22 .57336)" gradientUnits="userSpaceOnUse">
   <stop stop-color="#ffb500" offset="0"/>
   <stop stop-opacity="0" offset="1"/>
  </linearGradient>
  <linearGradient id="linearGradient25" x1="125.84" x2="125.59" y1="50.28" y2="121.35" gradientUnits="userSpaceOnUse">
   <stop stop-color="#00ff42" offset="0"/>
   <stop stop-color="#060606" stop-opacity="0" offset="1"/>
  </linearGradient>
 </defs>
 <g transform="translate(-1.9075 .98499)">
  <path d="m131.84 25 88 48.18a8 8 0 0 1 4.16 7v95.64a8 8 0 0 1-4.16 7l-88 48.18a8 8 0 0 1-7.68 0l-88-48.18a8 8 0 0 1-4.16-7v-95.64a8 8 0 0 1 4.16-7l88-48.18a8 8 0 0 1 7.68 0z" stroke="#fff" stroke-linecap="round" stroke-linejoin="round" stroke-width="16"/>
 </g>
 <g transform="matrix(.80365 0 0 .80365 23.225 25.304)" fill="none" stroke="#fff" stroke-linecap="round" stroke-linejoin="round" stroke-width="16">
  <polyline points="32.7 76.92 128 129.08 223.3 76.92"/>
  <path d="m131.84 25 88 48.18a8 8 0 0 1 4.16 7v95.64a8 8 0 0 1-4.16 7l-88 48.18a8 8 0 0 1-7.68 0l-88-48.18a8 8 0 0 1-4.16-7v-95.64a8 8 0 0 1 4.16-7l88-48.18a8 8 0 0 1 7.68 0z"/>
  <line x1="128" x2="128" y1="129.09" y2="232"/>
 </g>
 <path d="m55.37 97.655 64.288 35.223 0.0224 68.942-64.32-35.221z" fill="url(#linearGradient17)" opacity=".75"/>
 <path d="m196.81 97.66-64.288 35.223-0.0224 68.942 64.32-35.221z" fill="url(#linearGradient18)" opacity=".75"/>
 <path d="m126.09 51.031 64.569 35.35-64.571 35.334-64.56-35.341z" fill="url(#linearGradient25)" opacity=".75"/>
</svg>
